<?xml version="1.0" standalone="no"?>
<!DOCTYPE svg PUBLIC "-//W3C//DTD SVG 20010904//EN"
 "http://www.w3.org/TR/2001/REC-SVG-20010904/DTD/svg10.dtd">
<svg version="1.0" xmlns="http://www.w3.org/2000/svg"
 width="500.000000pt" height="500.000000pt" viewBox="0 0 500.000000 500.000000"
 preserveAspectRatio="xMidYMid meet">

<g transform="translate(0.000000,500.000000) scale(0.100000,-0.100000)"
fill="#000000" stroke="none">
<path d="M2298 4050 c-204 -33 -479 -190 -592 -339 -39 -52 -39 -52 -60 -33
-12 10 -37 32 -56 49 -107 93 -103 88 -91 110 17 34 13 51 -19 83 -46 45 -77
62 -99 55 -24 -7 -101 -90 -101 -107 0 -16 99 -118 114 -118 6 0 21 6 32 14
18 13 26 9 101 -57 45 -40 84 -79 87 -88 4 -9 -14 -58 -38 -110 -38 -81 -94
-264 -84 -274 2 -2 14 -6 28 -10 24 -6 27 -3 35 37 l10 43 195 7 c199 7 311 3
342 -14 10 -5 25 -23 34 -41 9 -18 25 -40 35 -50 19 -18 17 -21 -86 -120
l-105 -102 0 -307 c0 -170 -3 -308 -8 -308 -4 0 -24 14 -45 31 l-37 30 0 284
c0 280 -5 335 -34 335 -22 0 -26 -47 -26 -314 l0 -251 -49 50 -48 50 -6 240
c-6 229 -6 241 13 267 11 15 20 32 20 38 0 13 -62 99 -72 100 -4 0 -18 -18
-30 -39 -25 -43 -40 -51 -104 -51 -42 0 -95 30 -138 79 -11 11 -23 21 -28 21
-4 0 -35 -28 -68 -62 l-59 -63 26 -27 c26 -27 27 -33 24 -118 -3 -109 2 -130
35 -130 23 0 24 3 24 64 0 74 6 96 27 96 9 0 32 18 52 40 l37 41 85 -3 84 -3
7 -50 c9 -74 9 -325 0 -325 -24 0 -112 237 -112 300 0 16 -4 20 -16 16 -9 -3
-22 -6 -30 -6 -20 0 -18 -42 7 -130 70 -253 277 -496 528 -620 192 -96 430
-128 616 -85 39 9 81 19 95 22 46 9 250 114 303 156 90 71 208 205 239 272 10
23 16 25 78 25 65 0 68 -1 114 -45 27 -25 53 -45 58 -45 13 0 118 106 118 120
0 10 -31 43 -93 99 l-27 24 -54 -51 c-50 -47 -59 -52 -100 -52 -25 0 -46 4
-46 9 0 22 60 157 74 166 10 6 26 5 49 -3 18 -7 48 -12 65 -12 29 0 32 3 32
31 l0 31 -67 -4 -68 -3 -3 48 c-3 46 -5 48 -30 45 -18 -2 -28 -10 -32 -28 l-6
-25 -239 -1 -240 -2 -57 58 c-32 32 -58 65 -58 73 0 14 90 123 131 159 17 15
19 31 19 176 0 87 3 226 7 309 l6 150 43 -31 43 -31 0 -282 c1 -155 -2 -288
-5 -297 -3 -9 -14 -16 -23 -16 -9 0 -39 -22 -66 -50 l-48 -49 57 -66 c32 -36
61 -65 66 -65 13 0 100 111 100 129 0 9 -5 22 -11 28 -9 9 -11 96 -10 305 1
161 5 295 7 298 3 3 25 -16 50 -42 l44 -47 0 -261 c0 -222 -2 -261 -15 -266
-23 -9 -18 -40 11 -63 31 -25 60 -27 68 -6 4 12 24 15 87 15 l82 0 57 -49 57
-50 63 64 c73 74 75 63 -22 154 l-36 33 -43 -33 c-24 -19 -50 -40 -57 -46 -9
-9 -45 -13 -103 -13 l-89 0 0 184 c0 186 6 216 35 185 22 -24 64 -143 77 -218
10 -61 15 -71 33 -71 56 1 57 47 3 198 -16 46 -28 86 -26 87 2 2 23 5 46 6 38
3 47 -2 85 -39 24 -23 48 -42 54 -42 17 0 113 98 113 115 0 18 -97 115 -114
115 -7 0 -31 -20 -54 -45 -40 -45 -41 -45 -106 -45 l-65 0 -42 63 c-127 187
-340 341 -554 397 -91 24 -321 35 -417 20z m263 -61 c64 -6 140 -22 197 -41
l92 -31 0 -318 0 -319 -47 -53 c-27 -30 -61 -62 -76 -71 -28 -17 -28 -17 -70
17 -97 79 -677 660 -677 678 0 37 215 120 355 138 100 12 111 12 226 0z
m-1117 -114 c3 -8 -5 -26 -17 -40 l-22 -26 -29 30 -30 31 23 24 c22 23 25 24
46 10 13 -8 26 -22 29 -29z m493 -255 c24 -26 39 -37 47 -31 6 5 46 12 90 16
61 5 81 4 87 -7 23 -35 12 -39 -98 -37 l-107 1 -28 -33 -28 -34 -29 35 -29 34
-86 -3 -86 -2 9 23 c6 18 17 24 49 26 23 2 50 -2 61 -7 16 -9 26 -5 58 24 21
19 42 35 47 35 4 0 24 -18 43 -40z m1625 -102 l-22 -22 -21 21 c-20 20 -20 21
-3 47 l17 27 26 -25 25 -26 -22 -22z m-1107 -348 l279 -280 286 0 c157 0 295
-3 308 -6 16 -5 22 -13 20 -28 -3 -21 -7 -21 -303 -26 l-300 -5 -33 23 c-18
13 -152 142 -297 286 l-266 264 -263 -6 c-145 -3 -271 -2 -280 1 -13 5 -14 11
-4 32 l11 25 281 0 281 -1 280 -279z m-1040 -25 c30 -31 31 -37 6 -59 -16 -15
-22 -15 -40 -4 -29 18 -33 35 -15 64 9 13 18 24 20 24 2 0 15 -11 29 -25z
m1615 -28 c0 -13 -30 -47 -41 -47 -5 0 -16 11 -25 25 -15 23 -15 27 1 51 l17
26 24 -23 c13 -12 24 -27 24 -32z m530 -1 c-1 -6 -10 -22 -21 -35 l-20 -25
-26 26 -25 25 22 26 c21 24 24 25 46 10 13 -8 24 -20 24 -27z m-1202 -108 c69
-68 182 -181 251 -252 69 -71 167 -171 216 -222 50 -50 103 -106 120 -123 l29
-31 -24 -18 c-77 -56 -192 -105 -295 -127 -137 -29 -411 -11 -440 29 -7 9 -26
16 -43 16 -17 0 -50 9 -75 19 l-44 19 -6 68 c-4 38 -7 185 -7 326 l0 256 87
81 c48 45 92 81 97 81 5 0 65 -55 134 -122z m732 -343 c0 -5 -17 -29 -38 -53
l-37 -42 -53 53 c-56 57 -61 67 -34 67 9 0 32 13 51 29 l33 28 39 -35 c21 -20
39 -41 39 -47z m500 16 c0 -4 -11 -18 -25 -31 l-25 -23 -25 29 -24 28 21 23
21 22 28 -20 c16 -11 29 -24 29 -28z m-327 33 c31 -6 37 -11 37 -30 0 -24 -2
-24 -93 -24 -100 0 -123 9 -106 42 8 14 21 18 67 18 31 0 74 -3 95 -6z"/>
<path d="M2183 3885 c-31 -31 -35 -40 -30 -72 8 -47 61 -103 98 -103 32 0 99
73 99 109 0 14 -16 39 -39 62 -50 50 -81 51 -128 4z m85 -37 c17 -17 15 -43
-4 -58 -13 -11 -18 -10 -36 7 -16 17 -18 24 -9 42 13 24 31 27 49 9z"/>
<path d="M2610 3882 c-53 -52 -54 -84 -1 -144 34 -39 40 -53 48 -114 7 -60 11
-69 29 -72 21 -3 22 1 25 85 3 72 8 94 27 120 24 34 29 88 10 106 -30 29 -72
57 -84 57 -7 0 -31 -17 -54 -38z m83 -50 c16 -17 15 -20 -6 -40 l-24 -22 -18
20 c-17 19 -17 21 0 40 22 25 28 25 48 2z"/>
<path d="M2408 3682 c-55 -52 -55 -89 0 -145 30 -29 45 -38 60 -33 32 10 71
45 88 77 20 40 8 65 -60 117 -16 12 -33 22 -38 22 -5 0 -27 -17 -50 -38z m87
-77 c0 -10 -8 -23 -17 -29 -14 -8 -22 -6 -40 11 -21 22 -21 23 -3 43 16 18 21
19 39 6 12 -7 21 -21 21 -31z"/>
<path d="M2612 3469 c-55 -53 -55 -80 -2 -137 49 -51 77 -54 119 -11 26 26 31
38 31 78 0 43 -3 50 -39 79 -22 18 -46 32 -54 32 -8 0 -33 -18 -55 -41z m80
-46 c22 -20 23 -31 1 -55 -21 -24 -28 -23 -48 8 -16 24 -16 27 1 45 21 23 23
23 46 2z"/>
<path d="M2147 2957 c-45 -39 -48 -44 -38 -70 18 -47 72 -107 96 -107 13 0 41
18 64 40 34 33 41 46 41 77 -1 33 -7 42 -44 71 -24 17 -49 32 -57 32 -8 0 -36
-19 -62 -43z m100 -53 c3 -9 -2 -23 -11 -32 -30 -31 -74 20 -46 53 14 17 47 4
57 -21z"/>
<path d="M2392 2765 c-47 -41 -57 -62 -43 -96 14 -36 69 -89 92 -89 30 0 98
70 105 108 6 29 2 36 -37 72 -24 22 -51 40 -60 40 -8 0 -34 -16 -57 -35z m78
-50 l24 -26 -25 -25 -25 -25 -23 25 c-23 24 -23 26 -7 51 21 31 27 31 56 0z"/>
<path d="M2177 2723 c-4 -3 -7 -26 -7 -50 0 -39 2 -43 25 -43 23 0 25 3 25 50
0 42 -3 50 -18 50 -10 0 -22 -3 -25 -7z"/>
<path d="M2197 2549 c-33 -28 -37 -35 -37 -79 0 -66 31 -104 85 -104 31 0 44
7 76 42 22 22 39 51 39 63 0 24 -86 109 -110 109 -9 0 -32 -14 -53 -31z m78
-59 c9 -10 15 -26 11 -35 -17 -45 -74 -18 -62 29 8 31 26 33 51 6z"/>
<path d="M2612 2498 c-62 -51 -68 -73 -36 -120 32 -46 70 -78 92 -78 8 0 32
18 54 40 53 57 53 101 0 153 -21 20 -45 37 -54 37 -9 0 -34 -15 -56 -32z m82
-60 c14 -20 14 -24 -6 -45 l-21 -23 -19 22 c-21 25 -23 39 -6 56 18 18 35 15
52 -10z"/>
<path d="M3734 3555 c-12 -30 4 -45 46 -45 38 0 40 2 40 30 0 28 -2 30 -40 30
-27 0 -43 -5 -46 -15z"/>
<path d="M3880 3540 c0 -16 5 -21 23 -18 12 2 22 10 22 18 0 8 -10 16 -22 18
-18 3 -23 -2 -23 -18z"/>
<path d="M3502 3361 c-8 -4 -12 -19 -10 -32 3 -21 8 -24 43 -24 35 0 40 3 43
24 4 26 -12 41 -43 41 -11 0 -26 -4 -33 -9z"/>
<path d="M3666 3347 c-9 -36 4 -48 48 -45 38 3 41 5 41 33 0 29 -2 30 -42 30
-33 1 -43 -3 -47 -18z"/>
<path d="M3840 3332 c0 -34 22 -47 51 -31 33 17 21 53 -18 57 -31 3 -33 1 -33
-26z"/>
<path d="M1873 3212 c-35 -32 -63 -62 -63 -67 1 -25 130 -141 130 -117 0 5 25
35 56 66 l57 58 -59 59 c-32 32 -59 59 -59 59 0 -1 -28 -27 -62 -58z m83 -47
c16 -24 16 -27 -1 -45 -24 -27 -43 -25 -57 5 -9 21 -8 28 7 45 24 26 31 25 51
-5z"/>
<path d="M3707 3134 c-4 -4 -7 -18 -7 -31 0 -22 4 -23 61 -23 60 0 60 0 57 28
-3 25 -7 27 -53 30 -28 2 -54 0 -58 -4z"/>
<path d="M3913 3133 c-20 -7 -16 -51 5 -55 31 -7 52 4 52 27 0 29 -26 41 -57
28z"/>
<path d="M3640 2889 c0 -30 1 -30 48 -27 43 3 47 5 50 31 3 26 2 27 -47 27
-50 0 -51 -1 -51 -31z"/>
<path d="M3826 2905 c-10 -27 5 -45 39 -45 34 0 49 18 39 45 -4 9 -19 15 -39
15 -20 0 -35 -6 -39 -15z"/>
<path d="M1272 2745 c-28 -31 -52 -59 -52 -63 0 -4 20 -30 43 -57 38 -43 45
-58 51 -110 6 -57 5 -61 -20 -80 -15 -11 -38 -34 -51 -52 -24 -31 -24 -35 -10
-56 20 -32 98 -107 109 -107 17 0 118 109 118 127 0 10 -20 39 -45 63 -44 43
-45 46 -45 106 0 45 4 65 17 75 9 8 29 32 45 53 26 37 27 41 13 63 -23 35 -88
92 -105 93 -8 0 -39 -25 -68 -55z m94 -27 c30 -29 30 -39 0 -67 l-25 -23 -24
28 -25 28 21 28 c11 15 23 28 25 28 2 0 15 -10 28 -22z m13 -352 c13 -16 4
-43 -22 -64 -11 -9 -20 -5 -42 18 l-29 30 24 25 c24 25 43 23 69 -9z"/>
<path d="M3740 2681 c0 -30 1 -31 51 -31 49 0 50 1 47 28 -3 25 -7 27 -50 30
-47 3 -48 3 -48 -27z"/>
<path d="M3900 2676 c0 -21 21 -31 30 -15 5 7 6 17 4 21 -9 14 -34 9 -34 -6z"/>
<path d="M3182 2078 c-30 -30 6 -76 48 -63 37 12 19 75 -20 75 -9 0 -21 -5
-28 -12z"/>
<path d="M1885 1926 c-54 -15 -120 -82 -135 -138 -28 -103 16 -198 115 -244
106 -50 204 -17 273 91 30 47 34 133 8 182 -22 43 -88 97 -135 111 -45 14 -71
14 -126 -2z m111 -96 c79 -39 95 -133 31 -192 -73 -69 -188 -8 -187 99 1 44
13 63 60 92 43 26 44 26 96 1z"/>
<path d="M2323 1933 l-63 -4 0 -39 0 -40 95 0 c52 0 95 -2 95 -6 0 -3 -24 -35
-54 -72 -71 -89 -156 -216 -156 -233 0 -11 32 -14 170 -14 l170 0 0 43 0 42
-88 0 c-49 0 -91 3 -95 6 -3 4 12 34 35 67 42 61 58 82 116 148 23 26 32 46
32 70 l0 34 -98 1 c-53 0 -125 -1 -159 -3z"/>
<path d="M1190 1724 l0 -205 48 3 47 3 5 110 5 109 44 -87 c42 -83 71 -111 92
-90 4 4 29 44 54 88 l45 80 0 -61 c0 -34 3 -82 6 -108 l7 -46 43 0 44 0 0 205
0 205 -50 0 -50 0 -56 -111 c-30 -61 -59 -108 -63 -103 -5 5 -33 55 -62 111
l-54 103 -52 0 -53 0 0 -206z"/>
<path d="M2811 1893 c-8 -21 -41 -101 -74 -178 -33 -77 -63 -152 -67 -166 -7
-25 -7 -25 41 -25 46 1 50 3 61 34 l12 32 87 0 c86 0 87 0 99 -29 10 -26 17
-30 63 -33 29 -2 53 -4 54 -3 1 0 -22 55 -51 120 -29 66 -68 157 -87 202 l-34
83 -45 0 c-44 0 -47 -2 -59 -37z m87 -151 c12 -32 22 -61 22 -65 0 -4 -22 -7
-50 -7 -57 0 -60 6 -30 68 11 22 20 46 20 52 0 26 17 5 38 -48z"/>
<path d="M3170 1731 c0 -114 4 -202 9 -206 6 -3 28 -3 50 1 l41 7 0 198 0 199
-50 0 -50 0 0 -199z"/>
<path d="M3410 1725 c0 -223 -3 -211 59 -199 30 6 31 8 31 58 1 36 7 58 21 75
19 24 20 24 34 5 7 -10 33 -46 58 -78 l45 -60 58 3 c33 1 60 4 61 5 1 1 -10
15 -25 31 -15 17 -43 50 -62 75 -19 25 -37 47 -40 50 -13 11 -40 55 -40 66 0
11 35 55 104 131 l39 43 -55 0 -54 0 -59 -70 c-33 -39 -61 -75 -63 -80 -2 -6
-8 -10 -13 -10 -5 0 -9 36 -9 80 l0 80 -45 0 -45 0 0 -205z"/>
<path d="M1660 1229 c0 -81 2 -90 18 -87 10 2 18 14 20 31 3 23 8 27 33 27 31
0 69 30 69 55 0 9 -11 27 -25 40 -18 19 -35 25 -70 25 l-45 0 0 -91z m90 31
c0 -24 -26 -38 -42 -22 -16 16 -2 42 22 42 13 0 20 -7 20 -20z"/>
<path d="M1855 1310 c-13 -21 7 -125 28 -147 27 -30 68 -29 95 0 18 19 22 35
22 91 0 59 -2 67 -17 64 -14 -2 -19 -15 -21 -60 -3 -63 -21 -89 -47 -68 -8 7
-15 29 -15 49 0 20 -3 46 -6 59 -7 23 -28 30 -39 12z"/>
<path d="M2086 1301 c-27 -30 -17 -63 27 -84 20 -10 37 -23 37 -28 0 -13 -34
-11 -48 3 -8 8 -15 8 -27 -2 -15 -13 -14 -15 7 -32 13 -9 35 -18 49 -18 25 0
69 36 69 56 0 15 -41 51 -67 59 -34 10 -28 28 8 23 21 -3 33 0 36 10 13 33
-63 44 -91 13z"/>
<path d="M2260 1232 c0 -80 2 -90 18 -88 11 2 18 13 20 33 2 24 9 32 30 36 36
7 42 2 42 -39 0 -28 4 -35 18 -32 14 3 17 17 20 91 3 81 1 87 -17 87 -15 0
-20 -8 -23 -32 -3 -29 -7 -33 -35 -36 -29 -3 -32 -1 -35 30 -2 22 -9 34 -20
36 -16 3 -18 -6 -18 -86z"/>
<path d="M2590 1230 c0 -83 1 -90 20 -90 16 0 20 7 20 35 0 33 2 35 35 35 46
0 49 27 3 32 -22 2 -34 9 -36 21 -3 14 4 17 37 17 34 0 41 3 41 20 0 18 -7 20
-60 20 l-60 0 0 -90z"/>
<path d="M2770 1283 c0 -21 3 -62 6 -90 l7 -53 53 0 c47 0 54 2 54 20 0 17 -7
20 -40 20 -29 0 -40 4 -40 15 0 10 11 15 35 15 28 0 35 4 35 20 0 16 -7 20
-35 20 -24 0 -35 5 -35 15 0 11 11 15 40 15 33 0 40 3 40 20 0 18 -7 20 -60
20 l-60 0 0 -37z"/>
<path d="M2960 1230 l0 -91 57 3 c46 2 59 7 61 21 3 14 -4 17 -37 17 -49 0
-57 24 -11 34 19 3 30 12 30 22 0 12 -7 15 -30 12 -24 -4 -30 -1 -30 13 0 13
9 19 37 21 27 2 39 8 41 21 3 15 -5 17 -57 17 l-61 0 0 -90z"/>
<path d="M3140 1230 l0 -90 28 0 c54 0 97 19 115 50 39 65 -12 130 -100 130
l-43 0 0 -90z m91 40 c39 -22 14 -89 -33 -90 -15 0 -18 9 -18 50 0 53 10 61
51 40z"/>
<path d="M3528 1273 c-11 -3 -18 -14 -18 -29 0 -22 4 -25 32 -22 21 2 34 9 36
20 4 19 -25 36 -50 31z"/>
<path d="M1376 1254 c-9 -22 1 -34 30 -34 19 0 24 5 24 25 0 20 -5 25 -24 25
-13 0 -27 -7 -30 -16z"/>
</g>
</svg>
