<?xml version="1.0" standalone="no"?>
<!DOCTYPE svg PUBLIC "-//W3C//DTD SVG 20010904//EN"
 "http://www.w3.org/TR/2001/REC-SVG-20010904/DTD/svg10.dtd">
<svg version="1.0" xmlns="http://www.w3.org/2000/svg"
 width="500.000000pt" height="500.000000pt" viewBox="0 0 500.000000 500.000000"
 preserveAspectRatio="xMidYMid meet">

<g transform="translate(0.000000,500.000000) scale(0.100000,-0.100000)"
fill="#000000" stroke="none">
<path d="M2482 4390 c-21 -13 -35 -31 -38 -50 -8 -36 -8 -36 -119 -95 -49 -26
-117 -63 -149 -82 -50 -29 -63 -33 -83 -24 -56 26 -120 -6 -125 -62 -3 -28
-11 -36 -58 -61 -30 -16 -101 -55 -158 -87 l-104 -58 -34 16 c-33 16 -36 16
-72 -4 -29 -17 -39 -30 -46 -63 -8 -38 -7 -43 25 -76 l34 -35 -4 -315 -3 -316
24 4 23 3 3 316 2 316 25 13 c22 12 33 8 122 -38 221 -113 228 -118 231 -152
2 -23 12 -37 32 -48 l29 -17 3 -150 c3 -109 0 -156 -9 -172 -19 -32 -16 -54
12 -88 l24 -30 25 27 c29 31 35 82 11 92 -23 9 -18 314 6 329 12 7 40 -2 116
-41 159 -81 195 -105 232 -156 l34 -48 1 -321 c1 -315 1 -322 21 -322 20 0 20
7 22 319 l1 318 47 55 c51 58 106 98 152 109 15 3 39 13 52 21 55 35 130 73
143 73 8 0 26 -6 41 -12 l27 -13 0 -222 c0 -216 1 -223 20 -223 19 0 20 7 20
224 0 207 1 226 18 238 25 17 42 51 42 81 0 24 44 53 215 141 122 63 121 66
118 -233 -3 -304 5 -425 30 -429 16 -3 17 18 17 335 l0 339 30 23 c28 20 31
27 28 73 -3 46 -6 52 -40 72 -36 21 -38 21 -68 3 l-31 -19 -87 50 c-48 27
-117 66 -154 87 -59 32 -68 40 -68 65 0 21 -9 36 -33 54 -37 29 -67 33 -97 14
-16 -10 -24 -10 -42 1 -13 8 -59 35 -103 59 -150 83 -162 90 -183 103 -12 7
-22 24 -24 38 -3 24 -37 55 -73 65 -11 3 -34 -3 -53 -14z m-4 -146 c21 -15 22
-21 22 -178 0 -152 -1 -164 -21 -182 -20 -18 -21 -18 -72 10 -29 15 -101 53
-160 83 -105 54 -108 57 -105 87 3 28 14 36 153 112 83 45 152 83 155 83 3 1
16 -6 28 -15z m227 -39 c54 -30 100 -55 102 -55 1 0 25 -14 53 -31 41 -25 50
-36 50 -58 0 -26 -12 -34 -155 -110 l-156 -82 -29 18 -30 17 7 166 c5 134 9
167 22 177 24 19 28 17 136 -42z m-683 -221 c26 -14 38 -14 64 -5 30 11 40 7
160 -55 71 -37 141 -73 156 -81 59 -30 48 -51 -60 -107 -48 -25 -115 -61 -150
-81 l-62 -34 -36 21 -35 21 -31 -23 -30 -22 -132 67 c-183 94 -198 104 -194
127 2 12 22 31 48 46 109 61 260 142 267 142 2 0 18 -7 35 -16z m949 -9 c27
-14 33 -14 66 2 l36 17 86 -46 c224 -118 234 -125 211 -153 -6 -7 -48 -32 -93
-55 -45 -23 -110 -58 -144 -76 -61 -34 -61 -34 -96 -18 -34 16 -36 16 -67 -6
l-32 -23 -36 20 c-21 12 -92 51 -159 87 -68 37 -125 71 -128 75 -6 11 19 33
70 62 69 40 240 128 248 129 4 0 21 -7 38 -15z m-108 -369 c35 -18 57 -36 57
-46 0 -11 -27 -30 -82 -55 -46 -21 -96 -49 -113 -61 -16 -12 -49 -31 -73 -43
l-43 -22 -44 47 -44 47 -37 -41 c-41 -47 -54 -50 -92 -24 -15 11 -75 45 -134
76 -79 42 -108 63 -108 76 0 20 43 47 227 142 80 42 82 42 102 24 18 -17 20
-30 20 -128 0 -61 2 -113 5 -115 3 -3 12 -3 21 0 12 5 15 27 15 119 0 113 0
113 28 130 27 17 28 16 132 -40 58 -31 131 -69 163 -86z"/>
<path d="M2340 4096 c-17 -21 -9 -56 17 -73 19 -13 24 -12 42 6 25 25 27 44 5
65 -19 20 -48 20 -64 2z"/>
<path d="M2643 4104 c-22 -9 -16 -72 7 -84 17 -9 25 -6 46 15 24 24 25 28 11
48 -14 22 -41 30 -64 21z"/>
<path d="M1889 3849 c-18 -18 -19 -23 -6 -42 21 -32 50 -33 67 -3 12 23 11 28
-5 46 -23 25 -30 25 -56 -1z"/>
<path d="M2048 3859 c-21 -12 -24 -49 -6 -67 37 -37 92 14 62 57 -17 23 -30
26 -56 10z"/>
<path d="M2200 3825 c-14 -17 -5 -51 17 -59 24 -10 57 26 48 53 -8 25 -46 29
-65 6z"/>
<path d="M2976 3855 c-9 -9 -16 -23 -16 -31 0 -16 35 -54 49 -54 16 0 41 30
41 48 -1 40 -47 63 -74 37z"/>
<path d="M3142 3848 c-16 -16 -15 -53 3 -68 18 -15 52 -4 60 20 13 43 -33 78
-63 48z"/>
<path d="M2825 3826 c-20 -15 -17 -44 7 -59 12 -8 21 -7 32 2 36 30 -1 85 -39
57z"/>
<path d="M2638 3622 c-19 -4 -34 -43 -25 -66 9 -23 39 -35 65 -25 19 7 23 15
20 45 -3 38 -24 54 -60 46z"/>
<path d="M2345 3600 c-20 -22 -16 -59 8 -74 25 -16 51 4 55 41 2 23 -2 32 -22
41 -20 9 -27 8 -41 -8z"/>
<path d="M1690 3575 c-6 -15 -10 -134 -10 -281 l0 -254 25 0 25 0 -2 277 c-2
209 -6 277 -15 280 -7 3 -17 -7 -23 -22z"/>
<path d="M3307 3559 c-34 -19 -15 -79 25 -79 19 0 43 44 33 61 -12 18 -41 27
-58 18z"/>
<path d="M1808 3539 c-21 -12 -24 -59 -6 -77 36 -36 97 3 82 51 -11 36 -41 47
-76 26z"/>
<path d="M3128 3398 c-65 -77 -65 -72 -11 -138 26 -33 51 -60 54 -60 4 0 32
27 63 60 l56 61 -52 64 c-28 36 -55 65 -59 65 -3 0 -27 -24 -51 -52z"/>
<path d="M3310 3415 c0 -8 6 -15 14 -15 8 0 16 7 20 15 4 10 -1 15 -14 15 -11
0 -20 -7 -20 -15z"/>
<path d="M2887 3414 c-14 -14 -7 -35 11 -32 9 2 17 10 17 17 0 16 -18 25 -28
15z"/>
<path d="M1808 3168 c-4 -198 -3 -235 10 -245 8 -7 19 -10 23 -7 5 3 9 113 9
245 0 227 -1 239 -19 239 -18 0 -19 -13 -23 -232z"/>
<path d="M1926 3364 c-21 -21 -20 -41 3 -54 27 -14 51 -2 51 26 0 32 -33 49
-54 28z"/>
<path d="M2197 3363 c-15 -14 -6 -53 15 -64 18 -10 24 -8 35 7 16 22 17 36 1
52 -13 13 -41 16 -51 5z"/>
<path d="M2750 3260 c0 -103 1 -110 20 -110 19 0 20 7 20 110 0 103 -1 110
-20 110 -19 0 -20 -7 -20 -110z"/>
<path d="M2880 3308 c0 -2 -3 -33 -6 -69 -7 -69 5 -109 30 -109 19 0 28 54 20
122 -5 48 -10 58 -25 58 -11 0 -19 -1 -19 -2z"/>
<path d="M3311 3266 c-17 -20 -4 -56 20 -56 24 0 36 27 22 48 -14 22 -28 25
-42 8z"/>
<path d="M2200 3175 c0 -73 1 -75 25 -75 24 0 25 2 25 75 0 73 -1 75 -25 75
-24 0 -25 -2 -25 -75z"/>
<path d="M1926 3214 c-11 -28 -6 -51 13 -68 19 -17 20 -17 26 18 4 20 5 43 1
51 -7 20 -32 19 -40 -1z"/>
<path d="M2345 3207 c-20 -16 -17 -56 7 -70 12 -8 21 -7 32 2 38 32 1 96 -39
68z"/>
<path d="M2617 3203 c-13 -12 -7 -61 9 -74 33 -27 72 33 44 67 -13 15 -42 19
-53 7z"/>
<path d="M3564 3196 c-10 -26 4 -48 28 -44 17 2 23 10 23 28 0 18 -6 26 -23
28 -13 2 -25 -3 -28 -12z"/>
<path d="M3150 2985 c0 -154 1 -165 19 -165 16 0 19 11 23 118 6 165 1 212
-23 212 -18 0 -19 -10 -19 -165z"/>
<path d="M3308 3098 c-3 -24 -4 -198 -2 -387 2 -334 2 -345 -18 -372 -20 -27
-20 -29 -4 -53 18 -28 63 -35 84 -14 17 17 15 54 -3 71 -12 13 -15 76 -17 404
-3 347 -5 388 -19 391 -12 2 -17 -7 -21 -40z"/>
<path d="M2711 3051 c-28 -32 -51 -63 -51 -69 0 -5 21 -35 47 -66 47 -56 75
-69 90 -42 4 7 27 35 51 61 35 40 40 50 30 64 -22 29 -102 111 -109 111 -4 0
-30 -26 -58 -59z"/>
<path d="M1415 3079 c-8 -26 16 -54 39 -46 19 7 21 38 4 55 -18 18 -36 14 -43
-9z"/>
<path d="M1930 3064 c-16 -41 -13 -169 5 -184 26 -22 35 0 35 83 0 120 -17
162 -40 101z"/>
<path d="M3567 3084 c-12 -12 -8 -41 8 -54 20 -17 47 5 43 34 -3 21 -37 34
-51 20z"/>
<path d="M2348 2853 c-3 -114 -2 -212 3 -217 4 -5 15 -6 24 -3 13 6 15 32 13
214 -3 182 -5 208 -19 211 -14 3 -17 -21 -21 -205z"/>
<path d="M1517 2995 l-49 -55 30 -37 c17 -21 41 -49 55 -62 l26 -23 53 57 c29
31 54 60 56 64 3 9 -103 111 -115 110 -4 0 -30 -25 -56 -54z"/>
<path d="M2206 3015 c-20 -21 -5 -55 25 -55 24 0 36 27 22 48 -14 23 -29 25
-47 7z"/>
<path d="M2047 3013 c-4 -3 -7 -66 -7 -140 l0 -133 25 0 25 0 0 140 c0 129 -1
140 -18 140 -10 0 -22 -3 -25 -7z"/>
<path d="M3426 2972 c-16 -26 -29 -56 -27 -67 3 -24 48 -95 60 -95 12 0 43 30
75 72 l27 36 -43 50 c-24 28 -47 51 -53 51 -5 0 -23 -21 -39 -47z"/>
<path d="M2993 2968 c-46 -22 -54 -106 -12 -144 18 -16 19 -33 19 -349 0 -283
-2 -337 -16 -364 -14 -29 -14 -34 0 -56 32 -48 96 -28 96 30 0 12 -9 30 -20
40 -19 17 -20 31 -20 348 l0 330 25 23 c19 17 25 33 25 63 0 34 -5 44 -33 65
-38 29 -34 28 -64 14z m45 -65 c13 -24 4 -43 -19 -43 -13 0 -19 7 -19 23 0 39
23 50 38 20z"/>
<path d="M2180 2850 c0 -22 5 -40 10 -40 7 0 10 -163 10 -470 l0 -469 -47 -32
c-58 -39 -133 -118 -126 -133 7 -16 162 -138 182 -143 16 -4 79 43 178 132
l23 21 -62 63 c-34 35 -73 70 -86 79 l-23 15 6 466 c5 392 8 467 21 474 19 11
18 63 -2 71 -9 3 -31 6 -50 6 -33 0 -34 -1 -34 -40z m11 -1128 l-6 -93 -47 37
c-27 20 -48 41 -48 47 0 11 98 112 103 106 2 -2 1 -46 -2 -97z m128 -28 c-13
-14 -36 -35 -51 -46 l-28 -19 0 98 0 98 52 -53 51 -52 -24 -26z"/>
<path d="M1766 2826 c-26 -30 -48 -57 -48 -61 1 -12 99 -115 110 -115 6 0 33
26 61 58 l50 57 -57 58 c-31 31 -59 57 -62 57 -3 -1 -27 -25 -54 -54z"/>
<path d="M1421 2851 c-13 -23 8 -45 33 -35 21 8 21 40 0 48 -22 8 -22 8 -33
-13z"/>
<path d="M2617 2813 c-11 -10 -8 -71 3 -78 6 -3 10 -29 10 -56 0 -43 3 -50 18
-47 14 3 19 19 25 82 4 44 5 86 3 93 -6 13 -48 18 -59 6z"/>
<path d="M2748 2443 c-3 -358 -1 -388 27 -380 10 4 25 658 16 720 -2 18 -9 27
-21 27 -17 0 -18 -22 -22 -367z"/>
<path d="M3562 2768 c4 -31 53 -34 53 -3 0 15 -8 21 -28 23 -25 3 -28 0 -25
-20z"/>
<path d="M1555 2667 c-4 -62 -4 -135 0 -160 6 -36 3 -53 -9 -72 -35 -54 -2
-118 51 -99 39 13 49 60 22 98 -20 26 -21 38 -18 185 4 153 4 156 -17 159 -21
3 -22 -2 -29 -111z"/>
<path d="M3125 2728 c-22 -28 -43 -57 -47 -64 -5 -7 8 -33 33 -66 60 -77 59
-75 74 -54 8 10 29 35 47 55 19 20 37 42 41 48 8 13 -80 131 -98 132 -5 0 -28
-23 -50 -51z"/>
<path d="M3439 2773 c0 -5 -1 -157 -2 -340 -1 -182 -4 -333 -7 -335 -3 -2 -18
-10 -33 -18 -68 -34 -97 -135 -58 -198 26 -40 76 -72 115 -72 63 0 146 78 146
138 0 53 -66 142 -106 142 -12 0 -14 53 -14 345 0 338 0 345 -20 345 -11 0
-20 -3 -21 -7z m61 -740 c38 -26 49 -45 50 -81 0 -67 -91 -118 -141 -79 -57
44 -60 108 -7 152 35 29 64 32 98 8z"/>
<path d="M2873 2754 c-7 -18 6 -45 25 -52 14 -4 35 35 28 54 -7 19 -45 18 -53
-2z"/>
<path d="M1420 2730 c0 -14 7 -20 24 -20 28 0 42 26 20 34 -29 11 -44 6 -44
-14z"/>
<path d="M2001 2641 c-28 -32 -51 -63 -51 -67 0 -5 26 -37 58 -72 l57 -63 53
65 c28 35 52 68 52 71 0 11 -101 125 -110 125 -4 0 -31 -26 -59 -59z"/>
<path d="M3564 2655 c-8 -19 3 -35 26 -35 32 0 50 11 50 31 0 15 -7 19 -35 19
-22 0 -38 -6 -41 -15z"/>
<path d="M1687 2653 c-4 -3 -7 -57 -7 -119 0 -93 3 -113 16 -118 9 -3 20 -4
25 0 5 3 9 59 9 125 0 109 -2 119 -18 119 -10 0 -22 -3 -25 -7z"/>
<path d="M2876 2614 c-3 -9 -6 -71 -6 -139 0 -72 -4 -126 -10 -130 -5 -3 -10
-24 -10 -46 l0 -39 45 0 45 0 0 40 c0 22 -4 40 -10 40 -6 0 -10 55 -10 145 0
136 -1 145 -19 145 -10 0 -22 -7 -25 -16z"/>
<path d="M1810 2483 l0 -118 -60 -35 c-33 -19 -60 -38 -60 -43 0 -4 5 -16 12
-27 9 -15 9 -24 -1 -44 -16 -29 -9 -56 15 -56 9 0 34 -16 55 -35 22 -19 43
-35 47 -35 5 0 31 17 59 38 28 20 59 42 70 49 17 12 17 13 -6 33 -13 11 -32
20 -42 20 -28 0 -23 13 11 32 33 19 39 44 13 52 -10 3 -30 17 -45 31 -27 25
-28 28 -28 140 0 108 -1 115 -20 115 -19 0 -20 -7 -20 -117z m44 -178 c36 -28
-11 -48 -56 -24 -21 11 -21 12 -3 25 23 17 35 17 59 -1z m-84 -55 c0 -15 -38
-32 -45 -20 -3 5 -3 15 0 20 8 13 45 13 45 0z m84 -46 c23 -9 20 -29 -7 -47
-21 -13 -25 -13 -50 9 -15 13 -27 25 -27 28 0 12 61 19 84 10z"/>
<path d="M1425 2560 c-4 -7 -3 -16 3 -22 14 -14 57 -6 57 12 0 18 -50 26 -60
10z"/>
<path d="M2630 2530 c0 -33 3 -40 20 -40 17 0 20 7 20 40 0 33 -3 40 -20 40
-17 0 -20 -7 -20 -40z"/>
<path d="M2462 2495 c-29 -36 -52 -68 -52 -71 0 -7 90 -118 99 -122 8 -3 121
112 121 123 0 3 -6 12 -12 20 -7 7 -31 36 -53 64 -22 28 -42 51 -45 51 -3 0
-29 -29 -58 -65z"/>
<path d="M3561 2551 c-21 -14 -5 -41 24 -41 29 0 45 27 24 41 -8 5 -18 9 -24
9 -5 0 -16 -4 -24 -9z"/>
<path d="M3714 2545 c-9 -22 9 -37 37 -33 16 2 24 10 24 23 0 26 -52 35 -61
10z"/>
<path d="M2327 2543 c-12 -12 -7 -60 8 -73 32 -26 76 21 59 64 -6 16 -54 22
-67 9z"/>
<path d="M3155 2468 c-3 -7 -6 -137 -7 -288 -3 -265 -4 -274 -23 -280 -55 -14
-105 -83 -105 -143 0 -84 95 -168 173 -153 44 8 115 79 123 122 13 69 -27 143
-93 170 l-33 14 0 285 c0 249 -2 285 -15 285 -9 0 -18 -6 -20 -12z m54 -612
c68 -35 83 -123 30 -175 -43 -44 -89 -43 -134 2 -60 60 -54 118 14 164 40 27
52 28 90 9z"/>
<path d="M1924 2436 c-9 -24 4 -48 23 -44 24 4 24 52 0 56 -9 2 -20 -4 -23
-12z"/>
<path d="M1417 2433 c-4 -3 -7 -15 -7 -25 0 -12 7 -18 24 -18 31 0 41 26 16
40 -22 12 -25 12 -33 3z"/>
<path d="M3554 2385 c-9 -22 4 -35 36 -35 28 0 41 14 33 38 -6 17 -62 15 -69
-3z"/>
<path d="M3714 2385 c-8 -19 3 -35 25 -35 22 0 45 25 36 40 -9 15 -55 12 -61
-5z"/>
<path d="M3855 2390 c-9 -15 4 -30 26 -30 12 0 19 7 19 20 0 21 -33 29 -45 10z"/>
<path d="M2040 2231 c0 -120 -3 -151 -15 -161 -18 -15 -20 -61 -3 -78 18 -18
69 -15 84 6 18 23 17 57 -1 72 -12 10 -15 41 -15 161 l0 149 -25 0 -25 0 0
-149z"/>
<path d="M2347 2373 c-4 -3 -7 -80 -7 -170 0 -100 -4 -163 -10 -163 -16 0 -23
-46 -10 -69 12 -24 58 -29 78 -9 15 15 16 64 2 73 -6 4 -10 67 -10 156 0 161
-12 213 -43 182z"/>
<path d="M2643 2363 c-10 -4 -13 -80 -13 -338 0 -212 -4 -336 -10 -340 -14 -9
-13 -58 2 -73 7 -7 21 -12 33 -12 12 0 26 5 33 12 17 17 15 63 -3 78 -13 11
-15 61 -15 341 0 180 -3 330 -7 332 -5 2 -14 2 -20 0z"/>
<path d="M1438 2278 c-9 -23 3 -38 29 -38 20 0 24 4 21 23 -3 25 -42 37 -50
15z"/>
<path d="M1560 2181 c0 -89 -1 -91 -27 -105 -39 -20 -68 -55 -84 -98 -11 -32
-11 -44 0 -75 50 -141 212 -153 278 -20 22 42 23 52 12 85 -14 46 -54 90 -96
108 l-32 14 -3 87 c-3 83 -4 88 -25 91 -22 3 -23 1 -23 -87z m86 -157 c60 -40
66 -113 13 -158 -41 -34 -63 -39 -98 -21 -49 25 -71 55 -71 96 0 79 89 126
156 83z"/>
<path d="M3553 2254 c-7 -18 14 -35 37 -31 8 1 16 12 18 25 3 18 -1 22 -23 22
-14 0 -28 -7 -32 -16z"/>
<path d="M2490 2081 c0 -112 -4 -181 -10 -181 -23 0 -21 -48 4 -85 29 -42 31
-51 16 -60 -5 -3 -10 -44 -10 -91 0 -63 -4 -89 -15 -100 -32 -33 -5 -94 42
-94 43 0 70 64 38 90 -11 9 -15 34 -15 97 0 46 -5 93 -11 105 -9 17 -6 25 15
47 29 30 34 72 11 91 -12 10 -15 47 -17 184 -3 169 -3 171 -25 174 l-23 3 0
-180z"/>
<path d="M2870 2042 c0 -121 -3 -152 -15 -162 -19 -16 -19 -57 -1 -76 18 -17
58 -18 74 -2 16 16 15 61 0 77 -9 9 -13 55 -13 159 0 145 0 147 -22 150 -23 3
-23 3 -23 -146z"/>
<path d="M3299 2174 c-16 -20 0 -49 27 -49 35 0 28 64 -7 65 -4 0 -12 -7 -20
-16z"/>
<path d="M2747 1994 c-13 -13 -7 -61 8 -74 23 -19 47 6 43 44 -2 22 -9 32 -23
34 -12 2 -24 0 -28 -4z"/>
<path d="M1917 1983 c-14 -13 -7 -64 9 -70 24 -9 48 21 40 51 -6 25 -33 35
-49 19z"/>
<path d="M1116 1925 c-8 -22 1 -35 25 -35 15 0 20 6 17 22 -4 27 -33 36 -42
13z"/>
<path d="M1222 1918 c2 -13 10 -23 18 -23 8 0 16 10 18 23 3 17 -2 22 -18 22
-16 0 -21 -5 -18 -22z"/>
<path d="M1320 1915 c0 -22 4 -26 23 -23 14 2 22 10 22 23 0 13 -8 21 -22 23
-19 3 -23 -1 -23 -23z"/>
<path d="M1817 1754 c-4 -4 -7 -16 -7 -26 0 -14 6 -19 23 -16 14 2 22 10 22
23 0 20 -25 32 -38 19z"/>
<path d="M3443 1653 c-20 -7 -15 -51 6 -62 24 -13 44 8 39 41 -3 23 -22 31
-45 21z"/>
<path d="M1557 1604 c-15 -16 -7 -53 14 -59 27 -9 42 6 37 36 -3 24 -36 38
-51 23z"/>
<path d="M1372 1228 l3 -123 25 0 c25 0 25 1 22 69 -4 77 1 78 50 10 22 -31
34 -41 38 -31 6 16 67 87 75 87 3 0 5 -31 5 -70 0 -68 1 -70 25 -70 l25 0 0
109 c0 60 3 116 6 125 10 27 -53 21 -67 -6 -17 -31 -62 -88 -71 -88 -4 0 -26
25 -50 55 -30 38 -50 55 -66 55 -22 0 -23 -1 -20 -122z"/>
<path d="M1784 1340 c-12 -5 -34 -24 -48 -43 -84 -109 56 -252 171 -174 36 24
63 71 63 109 0 33 -34 85 -69 103 -33 16 -84 19 -117 5z m90 -51 c13 -7 30
-24 37 -40 23 -58 -44 -113 -102 -83 -52 26 -59 80 -15 116 25 21 46 22 80 7z"/>
<path d="M2030 1325 c0 -24 3 -25 55 -25 30 0 55 -4 55 -9 0 -5 -16 -29 -36
-53 -56 -65 -87 -116 -79 -127 4 -7 46 -11 104 -11 97 0 99 0 103 25 7 33 3
35 -59 35 -29 0 -53 3 -53 8 0 4 25 39 55 77 31 38 54 76 53 85 -3 12 -23 16
-101 18 l-97 3 0 -26z"/>
<path d="M2346 1278 c-61 -132 -76 -167 -76 -172 0 -4 14 -6 30 -6 23 0 33 6
42 25 10 22 18 25 60 25 43 0 50 -3 58 -25 7 -19 17 -25 40 -25 16 0 30 4 30
9 0 5 -22 57 -50 116 -27 59 -50 111 -50 116 0 5 -11 9 -25 9 -22 0 -30 -10
-59 -72z m71 -39 c14 -37 10 -49 -17 -49 -10 0 -21 4 -24 9 -6 9 15 71 24 71
3 0 11 -14 17 -31z"/>
<path d="M2590 1225 l0 -125 25 0 25 0 0 125 0 125 -25 0 -25 0 0 -125z"/>
<path d="M2720 1241 c0 -127 4 -141 36 -141 21 0 24 4 24 40 0 45 24 65 44 38
50 -67 66 -79 101 -76 l35 3 -55 62 c-30 33 -55 66 -55 71 0 5 22 33 48 61
l48 51 -30 0 c-23 0 -43 -12 -83 -52 l-53 -52 0 52 c0 51 -1 52 -30 52 l-30 0
0 -109z"/>
<path d="M3138 1343 l-38 -4 0 -120 c0 -112 1 -119 20 -119 17 0 20 7 20 39 0
61 26 63 75 7 25 -29 48 -46 63 -46 29 0 28 6 -8 47 l-31 35 26 25 c34 34 35
96 3 117 -27 17 -79 25 -130 19z m93 -43 c21 -12 25 -50 7 -68 -7 -7 -31 -12
-55 -12 l-43 0 0 45 c0 45 0 45 36 45 19 0 44 -5 55 -10z"/>
<path d="M3320 1326 c0 -23 3 -24 36 -19 48 8 54 -3 54 -114 0 -76 3 -93 15
-93 12 0 15 18 15 105 l0 105 40 0 c33 0 40 3 40 20 0 19 -7 20 -100 20 -99 0
-100 0 -100 -24z"/>
<path d="M3570 1225 l0 -125 43 0 c68 0 113 17 147 57 28 32 32 41 27 80 -8
75 -62 113 -162 113 l-55 0 0 -125z m150 60 c25 -22 34 -68 20 -95 -13 -24
-67 -50 -105 -50 -25 0 -25 1 -25 86 l0 87 45 -6 c25 -2 54 -12 65 -22z"/>
<path d="M1960 1003 c0 -7 9 -13 20 -13 17 0 20 -7 20 -45 0 -25 5 -45 10 -45
6 0 10 20 10 45 0 39 3 45 21 45 11 0 19 5 17 11 -5 16 -98 18 -98 2z"/>
<path d="M2249 997 c-15 -32 -25 -34 -41 -7 -24 37 -38 24 -38 -35 0 -30 5
-55 10 -55 6 0 10 11 10 25 0 23 2 24 20 13 16 -11 22 -9 34 7 15 19 15 18 16
-17 0 -21 5 -38 10 -38 12 0 13 10 10 70 -2 57 -15 71 -31 37z"/>
<path d="M2675 968 c-11 -29 -21 -56 -23 -60 -2 -4 3 -8 12 -8 9 0 16 5 16 10
0 15 40 12 46 -3 4 -10 34 -21 34 -12 0 12 -50 120 -57 122 -5 2 -18 -20 -28
-49z m35 -14 c0 -8 -4 -14 -10 -14 -5 0 -10 9 -10 21 0 11 5 17 10 14 6 -3 10
-13 10 -21z"/>
<path d="M2780 1006 c0 -9 8 -16 19 -16 11 0 18 -7 18 -17 0 -51 4 -73 13 -73
6 0 10 20 10 45 0 34 4 45 16 45 35 0 4 25 -34 28 -33 2 -42 0 -42 -12z"/>
<path d="M2933 1008 c-6 -7 -18 -34 -28 -61 -19 -49 -13 -75 9 -44 17 22 52
22 60 0 5 -11 10 -13 17 -6 7 7 2 28 -16 67 -14 31 -27 56 -29 56 -2 0 -8 -6
-13 -12z m27 -59 c0 -5 -7 -9 -15 -9 -15 0 -20 12 -9 23 8 8 24 -1 24 -14z"/>
<path d="M3100 958 c0 -32 4 -58 10 -58 6 0 10 9 10 20 0 13 7 20 20 20 11 0
20 7 20 15 0 8 -9 15 -20 15 -28 0 -25 18 5 26 36 9 31 21 -10 20 l-35 -1 0
-57z"/>
<path d="M3210 958 l0 -58 35 0 c19 0 35 5 35 10 0 6 -11 10 -25 10 -30 0 -33
20 -5 27 11 3 20 9 20 14 0 5 -9 9 -20 9 -11 0 -20 5 -20 10 0 6 14 10 30 10
44 0 36 17 -10 22 l-40 4 0 -58z"/>
<path d="M3330 958 l0 -58 40 0 c44 0 55 17 15 22 -31 4 -34 22 -5 26 25 4 16
22 -11 22 -29 0 -23 18 8 22 14 2 28 9 31 16 3 9 -7 12 -37 10 l-41 -3 0 -57z"/>
<path d="M3463 1013 c-8 -3 -13 -25 -13 -62 l0 -57 35 4 c35 4 65 32 65 60 0
17 -45 62 -62 61 -7 0 -19 -3 -25 -6z m45 -35 c22 -22 14 -48 -13 -48 -21 0
-25 5 -25 30 0 31 17 39 38 18z"/>
<path d="M3590 1001 c-15 -29 -13 -37 15 -49 35 -16 33 -36 -2 -27 l-28 6 21
-21 c25 -26 58 -20 75 12 9 18 8 24 -7 35 -10 7 -26 13 -36 13 -10 0 -18 5
-18 10 0 6 14 10 31 10 27 0 30 2 19 15 -18 21 -57 19 -70 -4z"/>
<path d="M1400 955 c0 -30 5 -55 10 -55 6 0 10 9 10 20 0 28 15 25 38 -7 11
-16 24 -25 28 -21 4 4 1 15 -6 23 -10 12 -10 21 -1 41 16 35 -1 54 -45 54
l-34 0 0 -55z m60 26 c0 -14 -18 -23 -30 -16 -6 4 -8 11 -5 16 8 12 35 12 35
0z"/>
<path d="M1530 955 c0 -48 3 -55 19 -55 11 0 26 -3 35 -6 11 -4 16 -1 16 10 0
10 -9 16 -25 16 -16 0 -25 6 -25 15 0 8 9 15 20 15 11 0 20 5 20 10 0 6 -9 10
-20 10 -11 0 -20 5 -20 10 0 6 14 10 30 10 17 0 30 5 30 10 0 6 -18 10 -40 10
l-40 0 0 -55z"/>
<path d="M1665 977 c-22 -54 -28 -87 -16 -87 6 0 11 7 11 15 0 21 47 19 59 -2
6 -12 13 -15 19 -8 12 12 -31 115 -48 115 -6 0 -17 -15 -25 -33z m35 -22 c0
-8 -4 -15 -10 -15 -5 0 -10 7 -10 15 0 8 5 15 10 15 6 0 10 -7 10 -15z"/>
<path d="M1780 955 l0 -55 35 0 c39 0 48 17 13 22 -19 2 -24 10 -26 46 -5 61
-22 52 -22 -13z"/>
<path d="M2100 949 c0 -37 4 -58 10 -54 6 3 10 31 10 61 0 30 -4 54 -10 54 -6
0 -10 -27 -10 -61z"/>
<path d="M2330 955 l0 -55 41 0 c24 0 38 4 34 10 -3 6 -17 10 -31 10 -29 0
-32 20 -4 27 11 3 20 9 20 14 0 5 -9 9 -20 9 -11 0 -20 5 -20 10 0 6 11 10 24
10 14 0 28 5 31 10 4 6 -10 10 -34 10 l-41 0 0 -55z"/>
<path d="M2513 953 l2 -58 35 3 c38 3 70 32 70 62 0 30 -28 50 -70 50 l-40 0
3 -57z m75 13 c4 -18 -21 -46 -40 -46 -4 0 -8 16 -8 36 0 31 3 35 22 32 13 -2
24 -11 26 -22z"/>
<path d="M1880 945 c0 -10 10 -15 30 -15 20 0 30 5 30 15 0 10 -10 15 -30 15
-20 0 -30 -5 -30 -15z"/>
</g>
</svg>
